HIERARCHY
ROOT hip
{
	OFFSET 0.000000 0.000000 0.000000 
	CHANNELS 6 Xposition Yposition Zposition Xrotation Zrotation Yrotation
	JOINT abdomen
	{
		OFFSET 0.000000 3.402643 0.000000 
		CHANNELS 3 Xrotation Zrotation Yrotation
		JOINT chest
		{
			OFFSET 0.000000 8.438565 -0.680529 
			CHANNELS 3 Xrotation Zrotation Yrotation
			JOINT neck
			{
				OFFSET 0.000000 10.207942 -0.272212 
				CHANNELS 3 Xrotation Zrotation Yrotation
				JOINT head
				{
					OFFSET 0.000000 3.130431 0.000000 
					CHANNELS 3 Xrotation Zrotation Yrotation
					End Site
					{
						OFFSET 0.000000 3.130435 0.000000 
					}
				}
			}
			JOINT lCollar
			{
				OFFSET 3.470700 6.669187 -0.816635 
				CHANNELS 3 Yrotation Zrotation Xrotation
				JOINT lShldr
				{
					OFFSET 3.198488 0.000000 0.000000 
					CHANNELS 3 Zrotation Yrotation Xrotation
					JOINT lForeArm
					{
						OFFSET 10.139888 0.000000 0.000000 
						CHANNELS 3 Yrotation Zrotation Xrotation
						JOINT lHand
						{
							OFFSET 8.370511 0.000000 0.000000 
							CHANNELS 3 Zrotation Yrotation Xrotation
							End Site
							{
								OFFSET 4.083176 0.000000 0.000000 
							}
						}
					}
				}
			}
			JOINT rCollar
			{
				OFFSET -3.470700 6.669187 -0.816635 
				CHANNELS 3 Yrotation Zrotation Xrotation
				JOINT rShldr
				{
					OFFSET -3.198488 0.000000 0.000000 
					CHANNELS 3 Zrotation Yrotation Xrotation
					JOINT rForeArm
					{
						OFFSET -10.139888 0.000000 0.000000 
						CHANNELS 3 Yrotation Zrotation Xrotation
						JOINT rHand
						{
							OFFSET -8.370511 0.000000 0.000000 
							CHANNELS 3 Zrotation Yrotation Xrotation
							End Site
							{
								OFFSET -4.083176 0.000000 0.000000 
							}
						}
					}
				}
			}
		}
	}
	JOINT lThigh
	{
		OFFSET 5.308129 -1.633274 1.361059 
		CHANNELS 3 Xrotation Zrotation Yrotation
		JOINT lShin
		{
			OFFSET -2.041588 -20.007561 0.000000 
			CHANNELS 3 Xrotation Zrotation Yrotation
			JOINT lFoot
			{
				OFFSET 0.000000 -19.190928 -1.224953 
				CHANNELS 3 Xrotation Yrotation Zrotation
				End Site
				{
					OFFSET 0.000000 -2.449906 4.627600 
				}
			}
		}
	}
	JOINT rThigh
	{
		OFFSET -5.308129 -1.633274 1.361059 
		CHANNELS 3 Xrotation Zrotation Yrotation
		JOINT rShin
		{
			OFFSET 2.041588 -20.007561 0.000000 
			CHANNELS 3 Xrotation Zrotation Yrotation
			JOINT rFoot
			{
				OFFSET 0.000000 -19.190928 -1.224953 
				CHANNELS 3 Xrotation Yrotation Zrotation
				End Site
				{
					OFFSET 0.000000 -2.449906 4.627600 
				}
			}
		}
	}
}
MOTION
Frames: 8
Frame Time: 0.011111
41.895309 47.226105 59.750740 27.771088 6.653261 -66.326965 39.116722 16.987900 15.007612 -27.324547 1.021749 1.282915 4.932416 -6.168536 -23.368109 7.131882 47.188812 -46.120651 9.969777 -14.785672 3.853935 88.347923 -101.822487 -59.366924 -86.132156 1.314812 29.187075 8.524705 12.647240 -90.530655 -4.049711 8.641859 2.072876 72.816307 54.683453 -14.566753 47.014225 -6.963069 6.987548 -8.534408 -12.637552 78.118996 -61.065144 16.677803 -5.595744 82.497810 0.137540 -9.541530 -12.887996 -17.357840 -7.877838 13.003856 14.963666 -11.001542 26.867369 5.504498 4.410669 -34.093513 -4.923665 -1.979555 
41.987408 47.275593 59.340038 27.028875 6.866786 -63.080826 38.413204 18.096697 12.523133 -27.389246 0.148308 0.652560 4.731244 -6.396926 -23.046158 8.524866 47.888840 -44.996822 9.969777 -14.785672 3.853935 84.057388 -101.461151 -54.137119 -86.049721 1.435057 28.767159 8.524705 12.647240 -90.335335 -4.049711 8.641859 2.072876 73.882233 53.835018 -13.742254 46.393658 -6.789683 6.741580 -8.534408 -12.637552 76.927597 -59.862789 14.539053 -5.793026 81.039597 -0.050617 -9.482440 -16.472187 -17.344841 -8.819787 11.696017 14.660895 -13.493100 27.751268 5.456117 4.536956 -34.908634 -3.779182 -1.518458 
42.067291 47.380230 58.940948 26.185684 7.315313 -60.071030 37.568977 18.847874 9.899894 -27.569511 -0.472219 0.009622 4.644560 -6.612836 -22.689119 9.887292 48.394161 -43.735119 9.969777 -14.785672 3.853935 80.832062 -101.463333 -50.494854 -85.930443 1.632668 28.311867 8.524705 12.647240 -90.052139 -4.049711 8.641859 2.072876 77.286484 58.181736 -42.471008 43.822670 -6.031536 5.771174 -8.534408 -12.637552 44.896347 -58.766041 12.470056 -5.685197 79.464584 -0.272924 -9.427397 -19.263655 -17.164953 -9.476045 10.408502 14.077742 -16.213543 28.383320 5.425704 4.596499 -35.181850 -3.197483 -1.225127 
42.141220 47.487991 58.517727 25.621002 7.643393 -57.241253 36.821056 19.604366 7.552559 -27.494087 -0.918707 -0.579795 4.377045 -6.755490 -22.423613 11.155515 48.663811 -42.697639 9.969777 -14.785672 3.853935 77.473961 -101.424637 -46.575581 -85.778946 1.881507 27.890991 8.524705 12.647240 -89.485733 -4.049711 8.641859 2.072876 75.828224 52.134357 -11.195597 45.445347 -6.522800 6.383551 -8.534408 -12.637552 75.306503 -57.949802 10.858355 -5.295707 77.763763 -0.505854 -9.326787 -20.923473 -17.308136 -9.953317 9.265986 13.714272 -18.719925 29.022659 5.396716 4.704747 -35.176838 -2.995687 -1.112931 
42.211391 47.583847 58.053467 25.086535 7.856018 -54.705555 36.269165 20.066477 5.504759 -27.310005 -1.250195 -1.079656 3.979597 -6.703185 -22.192976 12.265130 48.807384 -41.839565 9.969777 -14.785672 3.853935 73.937370 -101.312683 -42.040184 -85.603943 2.141982 27.497608 8.524705 12.647240 -88.743538 -4.049711 8.641859 2.072876 76.682045 51.401062 -9.253781 45.085457 -6.417960 6.241972 -8.534408 -12.637552 74.349464 -57.296516 9.579057 -4.608757 76.148766 -0.711360 -9.249795 -21.280939 -17.502016 -10.147832 8.396940 13.458533 -20.465292 29.465258 5.357661 4.764689 -35.178310 -2.834831 -1.009248 
42.283447 47.644936 57.543163 24.743536 7.897621 -52.576477 35.984589 20.448956 3.886508 -27.387890 -1.417663 -1.498802 3.884170 -6.618622 -21.841290 13.090521 49.076382 -40.803593 9.969777 -14.785672 3.853935 71.268738 -101.412735 -38.866264 -85.376678 2.452261 27.088974 8.524705 12.647240 -88.655647 -4.049711 8.641859 2.072876 77.693993 50.895107 -9.208016 44.376835 -6.207860 5.982722 -8.534408 -12.637552 70.941261 -57.006584 8.817658 -3.966340 74.991028 -0.877494 -9.197592 -20.977869 -17.817783 -10.212866 7.812065 13.463665 -21.598938 29.634247 5.356587 4.779161 -35.028927 -2.407734 -0.713938 
42.331371 47.723251 57.021889 24.517374 7.752132 -50.940044 36.027348 20.797445 2.569665 -27.598932 -1.251175 -1.882537 3.952579 -6.692647 -21.467644 13.718864 48.939491 -39.689507 9.969777 -14.785672 3.853935 69.022530 -101.565445 -36.137901 -85.070564 2.828111 26.623230 8.524705 12.647240 -88.626358 -4.049711 8.641859 2.072876 78.263947 49.811634 -6.214722 44.201683 -6.148578 5.916343 -8.534408 -12.637552 70.511574 -56.966904 8.514908 -3.459607 74.319672 -0.964912 -9.157380 -20.479389 -18.187443 -10.256304 7.490017 13.738392 -21.990049 29.645733 5.346936 4.777692 -34.768669 -2.685614 -0.830233 
42.341396 47.875813 56.529755 24.083698 7.602335 -49.899864 36.322773 20.750307 1.404913 -27.603294 -0.873804 -2.211757 3.860306 -6.890169 -21.116693 14.398069 48.622780 -38.612064 9.969777 -14.785672 3.853935 66.030907 -101.465607 -32.475883 -84.690834 3.248990 26.139677 8.524705 12.647240 -88.587296 -4.049711 8.641859 2.072876 78.676109 48.647213 -2.271366 44.233299 -6.165077 5.930951 -8.534408 -12.637552 70.648293 -56.682537 8.446445 -2.777040 73.862289 -1.023247 -9.129265 -19.830162 -18.387775 -10.170873 7.421132 13.908456 -21.605368 29.522984 5.367089 4.781906 -34.348991 -3.124467 -0.981442 
